<svg width="24" height="24" viewBox="0 0 24 24" fill="none" xmlns="http://www.w3.org/2000/svg">
<path fill-rule="evenodd" clip-rule="evenodd" d="M20 5.63606H10.2716C9.98617 4.88455 9.25587 4.3501 8.4 4.3501C7.54413 4.3501 6.81383 4.88455 6.52835 5.63606H4V7.13606H6.56745C6.87661 7.83704 7.58078 8.32671 8.4 8.32671C9.21922 8.32671 9.92339 7.83704 10.2326 7.13606H20V5.63606ZM20 12.7033H18.2668C17.978 13.4482 17.2511 13.9767 16.4 13.9767C15.5489 13.9767 14.822 13.4482 14.5332 12.7033H4V11.2033H14.562C14.8682 10.4956 15.5759 10.0001 16.4 10.0001C17.2241 10.0001 17.9318 10.4956 18.238 11.2033H20V12.7033ZM10.2393 18.2706H20V16.7706H10.2657C9.9761 16.0272 9.24997 15.5001 8.4 15.5001C7.55003 15.5001 6.8239 16.0272 6.53431 16.7706H4V18.2706H6.56069C6.86626 18.9798 7.57476 19.4767 8.4 19.4767C9.22524 19.4767 9.93374 18.9798 10.2393 18.2706ZM16.4 12.9884C16.9523 12.9884 17.4 12.5407 17.4 11.9884C17.4 11.4361 16.9523 10.9884 16.4 10.9884C15.8477 10.9884 15.4 11.4361 15.4 11.9884C15.4 12.5407 15.8477 12.9884 16.4 12.9884Z" fill="#4F4F4F"/>
</svg>
