<svg width="24" height="24" viewBox="0 0 24 24" fill="none" xmlns="http://www.w3.org/2000/svg">
<g clip-path="url(#clip0)">
<path d="M12.6286 15.7029C12.5379 15.7029 12.4466 15.7015 12.354 15.6982C10.814 15.6959 9.56228 15.2309 8.63317 14.3161C6.99619 12.7043 6.99134 10.2799 6.99328 10.1128V4.09399H8.25473V10.1251C8.25473 10.1443 8.24794 12.1994 9.53754 13.4629C10.2226 14.1345 11.1745 14.4747 12.3661 14.4747L12.3904 14.4752C13.6358 14.5213 14.6358 14.2032 15.3611 13.5293C16.7196 12.2667 16.7453 10.1359 16.7453 10.1147V4.09399H18.0068V10.1156C18.0068 10.2234 17.9869 12.7754 16.2412 14.4051C15.3184 15.2672 14.104 15.7029 12.6286 15.7029Z" fill="#4F4F4F"/>
<path d="M21.4518 4H3.54883V5.22353H21.4518V4Z" fill="#4F4F4F"/>
<path d="M6.90593 10.7793C5.49456 10.7793 4.66976 10.1816 4.20933 9.63247C3.75229 9.08659 3.5 8.384 3.5 7.65459V4H4.76146V7.65459C4.76146 8.10353 4.91332 8.53224 5.18841 8.86071C5.67504 9.44141 6.45908 9.65976 7.51968 9.51012L7.70113 10.7209C7.4173 10.7614 7.15288 10.7793 6.90593 10.7793Z" fill="#4F4F4F"/>
<path d="M18.094 10.7793C17.8471 10.7793 17.5827 10.7609 17.2988 10.7209L17.4803 9.51012C18.5409 9.65976 19.3249 9.44094 19.8116 8.86071C20.0871 8.53176 20.2385 8.10353 20.2385 7.65459V4H21.5V7.65459C21.5 8.384 21.2477 9.08612 20.7902 9.63247C20.3302 10.1816 19.5049 10.7793 18.094 10.7793Z" fill="#4F4F4F"/>
<path d="M13.155 15.106H11.8936V19.3413H13.155V15.106Z" fill="#4F4F4F"/>
<path d="M16.066 19.9999H8.93395C8.58559 19.9999 8.30322 19.726 8.30322 19.3881C8.30322 19.0502 8.58559 18.7764 8.93395 18.7764H16.066C16.4144 18.7764 16.6968 19.0502 16.6968 19.3881C16.6968 19.726 16.4144 19.9999 16.066 19.9999Z" fill="#4F4F4F"/>
</g>
<defs>
<clipPath id="clip0">
<rect width="18" height="16" fill="white" transform="translate(3.5 4)"/>
</clipPath>
</defs>
</svg>
