<svg width="43" height="43" viewBox="0 0 43 43" fill="none" xmlns="http://www.w3.org/2000/svg">
<circle cx="21.5" cy="21.5" r="20.5" fill="#C4C4C4" stroke="#FFC301" stroke-width="2"/>
<g opacity="0.5">
<path d="M12.4657 28.481C8.1961 30.2403 4.03125 27.3088 4.03125 22.78C4.03125 18.2186 8.78593 16.4501 12.8 13.5605C11.4192 15.4113 10.9903 17.0841 10.9199 17.2823C10.284 19.3976 10.2412 21.6691 10.7439 23.9473C10.8587 24.4075 11.1972 26.1306 12.4657 28.481ZM30.2 13.5605C31.0471 14.6959 31.6788 15.9462 32.0793 17.2798C32.9347 20.1617 32.5401 22.6415 32.2561 23.9473C31.905 25.5394 31.3093 27.0451 30.5352 28.4794L30.5343 28.4802C34.8031 30.2403 38.9688 27.3088 38.9688 22.78C38.9688 18.2186 34.2141 16.4492 30.2 13.5605Z" fill="#E0E0E0"/>
<path d="M12.8 13.5603C12.8436 13.5166 12.7765 7.18918 21.5 7.1665C30.2478 7.18918 30.159 13.5586 30.1992 13.5586C27.2299 15.9493 15.688 16.0006 12.8 13.5603ZM21.5 36.2811C22.8849 36.2811 28.1281 32.9389 30.5343 28.4791C26.1801 31.6734 16.6666 31.7314 12.4674 28.4833C14.6792 32.734 20.0506 36.2811 21.5 36.2811ZM32.0793 17.2795C31.8715 17.4617 28.9341 19.8902 21.5461 19.9087C13.8942 19.8885 10.9358 17.2954 10.9199 17.2812C10.284 19.3965 10.2413 21.668 10.744 23.9462C10.8277 24.0285 13.9771 27.0414 21.5469 27.065C28.5126 27.044 31.7249 24.4181 32.2561 23.947C32.5409 22.6412 32.9356 20.1623 32.0793 17.2795Z" fill="#828282"/>
<path d="M21.5475 19.9097C13.8956 19.8895 10.9372 17.2964 10.9213 17.2821C10.9925 17.084 11.4206 15.4104 12.8014 13.5604C15.6894 16.0007 27.2313 15.9495 30.1998 13.5596C31.0468 14.6949 31.6794 15.9461 32.0807 17.2805C31.8721 17.4627 28.9346 19.8904 21.5475 19.9097ZM32.2566 23.9471C31.7254 24.4182 28.5132 27.0441 21.5475 27.0651C13.9777 27.0424 10.8283 24.0286 10.7445 23.9463C10.8593 24.4065 11.1978 26.1313 12.4679 28.4826C16.6671 31.7307 26.1807 31.6727 30.5349 28.4784C31.3099 27.0449 31.9056 25.5401 32.2566 23.9471Z" fill="#BDBDBD"/>
<path d="M20.0557 11.2939C19.9702 12.0086 19.5748 12.3957 19.15 12.3453C18.7252 12.2941 18.4311 11.8247 18.5166 11.11C18.602 10.3954 19.0335 9.70684 19.4583 9.75806C19.8831 9.80845 20.1411 10.5793 20.0557 11.2939ZM24.2892 10.8044H22.9504C22.8138 10.8044 22.7032 10.9152 22.7032 11.0521C22.7032 11.189 22.8138 11.2998 22.9504 11.2998H24.2892C24.4258 11.2998 24.5364 11.189 24.5364 11.0521C24.5364 10.9152 24.4258 10.8044 24.2892 10.8044Z" fill="#F2F2F2"/>
</g>
</svg>
