<svg width="24" height="24" viewBox="0 0 24 24" fill="none" xmlns="http://www.w3.org/2000/svg">
<mask id="mask0" mask-type="alpha" maskUnits="userSpaceOnUse" x="0" y="0" width="24" height="24">
<rect width="24" height="24" rx="4" fill="white"/>
</mask>
<g mask="url(#mask0)">
</g>
<path fill-rule="evenodd" clip-rule="evenodd" d="M12.0001 6.75005C8.54827 6.75005 5.75005 9.54827 5.75005 13.0001C5.75005 16.4518 8.54827 19.2501 12.0001 19.2501C15.4518 19.2501 18.2501 16.4518 18.2501 13.0001C18.2501 9.54827 15.4518 6.75005 12.0001 6.75005ZM4.25005 13.0001C4.25005 8.71985 7.71985 5.25005 12.0001 5.25005C16.2803 5.25005 19.7501 8.71985 19.7501 13.0001C19.7501 17.2803 16.2803 20.7501 12.0001 20.7501C7.71985 20.7501 4.25005 17.2803 4.25005 13.0001Z" fill="#4F4F4F"/>
<path fill-rule="evenodd" clip-rule="evenodd" d="M12.0001 9.25005C12.4143 9.25005 12.7501 9.58584 12.7501 10.0001V12.2501H14.0001C14.4143 12.2501 14.7501 12.5858 14.7501 13.0001C14.7501 13.4143 14.4143 13.7501 14.0001 13.7501H12.0001C11.5858 13.7501 11.2501 13.4143 11.2501 13.0001V10.0001C11.2501 9.58584 11.5858 9.25005 12.0001 9.25005Z" fill="#4F4F4F"/>
<path fill-rule="evenodd" clip-rule="evenodd" d="M7.60661 3.55892C7.85023 3.89391 7.77617 4.36298 7.44118 4.6066L4.69118 6.60661C4.35619 6.85023 3.88713 6.77617 3.6435 6.44118C3.39987 6.10619 3.47393 5.63713 3.80892 5.3935L6.55892 3.3935C6.89391 3.14987 7.36298 3.22393 7.60661 3.55892Z" fill="#4F4F4F"/>
<path fill-rule="evenodd" clip-rule="evenodd" d="M16.3935 3.55892C16.6371 3.22393 17.1062 3.14987 17.4412 3.3935L20.1912 5.3935C20.5262 5.63713 20.6002 6.10619 20.3566 6.44118C20.113 6.77617 19.6439 6.85023 19.3089 6.60661L16.5589 4.6066C16.2239 4.36298 16.1499 3.89391 16.3935 3.55892Z" fill="#4F4F4F"/>
</svg>
