<svg xmlns="http://www.w3.org/2000/svg" xmlns:xlink="http://www.w3.org/1999/xlink" width="24" height="24" viewBox="0 0 24 24">
    <defs>
        <path id="a" d="M12 5C7 5 2.73 8.11 1 12.5 2.73 16.89 7 20 12 20s9.27-3.11 11-7.5C21.27 8.11 17 5 12 5zm0 12.5c-2.76 0-5-2.24-5-5s2.24-5 5-5 5 2.24 5 5-2.24 5-5 5zm0-8c-1.66 0-3 1.34-3 3s1.34 3 3 3 3-1.34 3-3-1.34-3-3-3z"/>
    </defs>
    <g fill="none" fill-rule="evenodd">
        <use fill="#000" xlink:href="#a"/>
        <path stroke="#000" stroke-linecap="square" d="M21.5 4.5l-19 16"/>
        <path stroke="#FFF" d="M16 10.5l-6.746 5.621"/>
    </g>
</svg>
